<svg width="469" height="128" viewBox="0 0 469 128" fill="none" xmlns="http://www.w3.org/2000/svg">
<path d="M24.64 51.64C35.52 51.64 42.24 43.384 44.16 36.28H40C39.04 39.48 34.88 47.8 24.64 47.8C15.04 47.8 7.36 40.12 7.36 28.6C7.36 17.08 15.04 9.4 24.64 9.4C34.56 9.4 38.72 17.08 40 20.6H44.16C42.24 13.88 35.84 5.56 24.64 5.56C12.8 5.56 3.52 14.84 3.52 28.6C3.52 42.36 12.8 51.64 24.64 51.64ZM52.8225 51H80.9825V47.16H56.6625V30.52H79.7025V26.68H56.6625V10.04H80.9825V6.2H52.8225V51ZM90.885 51H94.725V33.4H109.445C117.125 33.4 122.565 27.96 122.565 19.96C122.565 11.96 116.805 6.2 109.445 6.2H90.885V51ZM94.725 29.56V10.04H109.445C114.885 10.04 118.725 13.88 118.725 19.96C118.725 25.72 114.885 29.56 109.445 29.56H94.725ZM142.093 51H145.933V10.04H161.293V6.2H126.733V10.04H142.093V51ZM168.948 51H175.988L198.068 10.36H199.347V51H203.188V6.2H196.148L174.068 46.84H172.788V6.2H168.948V51ZM232.938 52.28H236.778V45.24H237.738C250.538 45.24 257.578 38.2 257.578 27.96C257.578 17.72 250.538 10.68 237.738 10.68H236.778V4.92H232.938V10.68H231.978C219.178 10.68 212.138 17.72 212.138 27.96C212.138 38.2 219.178 45.24 231.978 45.24H232.938V52.28ZM231.978 41.4C221.418 41.4 215.978 35.96 215.978 27.96C215.978 19.96 221.418 14.52 231.978 14.52C232.298 14.52 232.938 14.52 232.938 14.52V41.4C232.938 41.4 232.298 41.4 231.978 41.4ZM236.778 41.4V14.52C236.778 14.52 237.418 14.52 237.738 14.52C248.298 14.52 253.738 19.96 253.738 27.96C253.738 35.96 248.298 41.4 237.738 41.4C237.418 41.4 236.778 41.4 236.778 41.4ZM266.51 51H273.55L295.63 10.36H296.91V51H300.75V6.2H293.71L271.63 46.84H270.35V6.2H266.51V51ZM312.26 51H316.1V29.24L337.54 51H342.66L320.26 28.28L341.38 6.2H336.26L316.1 27.32V6.2H312.26V51ZM343.008 51H346.848L351.456 38.84H374.24L378.847 51H382.688L365.728 6.2H359.968L343.008 51ZM352.928 35L362.208 10.36H363.488L372.768 35H352.928ZM396.468 51H400.308V10.04H415.668V6.2H381.108V10.04H396.468V51ZM423.323 51H439.963C447.323 51 453.083 45.24 453.083 37.24C453.083 28.92 447.323 23.16 439.963 23.16H427.163V6.2H423.323V51ZM427.163 47.16V27H439.963C445.403 27 449.243 30.84 449.243 37.24C449.243 43.32 445.403 47.16 439.963 47.16H427.163ZM458.843 51H462.683V6.2H458.843V51Z" fill="#BDBDBD"/>
<path d="M4.48 115H14.72V94.84L29.12 115H41.6L24.96 92.28L40.32 70.2H27.84L14.72 89.4V70.2H4.48V115ZM63.07 115.64C75.23 115.64 84.83 106.04 84.83 92.6C84.83 79.16 75.23 69.56 63.07 69.56C50.91 69.56 41.31 79.16 41.31 92.6C41.31 106.04 50.91 115.64 63.07 115.64ZM63.07 105.72C56.67 105.72 51.55 100.6 51.55 92.6C51.55 84.6 56.67 79.48 63.07 79.48C69.47 79.48 74.59 84.6 74.59 92.6C74.59 100.6 69.47 105.72 63.07 105.72ZM91.855 115H102.095V87.48H103.375L112.335 115H121.935L130.895 87.48H132.175V115H142.415V70.2H126.735L117.775 98.04H116.495L107.535 70.2H91.855V115ZM151.355 115H161.595V80.12H178.235V115H188.475V70.2H151.355V115ZM192.617 115H203.818L206.698 106.04H223.978L226.858 115H238.058L222.698 70.2H207.978L192.617 115ZM209.578 97.08L214.698 81.08H215.978L221.098 97.08H209.578ZM242.23 115H252.47V97.72H269.75V115H279.99V70.2H269.75V87.16H252.47V70.2H242.23V115ZM288.98 115H301.14L315.22 88.12H316.5V115H326.74V70.2H314.58L300.5 97.08H299.22V70.2H288.98V115ZM335.73 115H347.89L361.97 88.12H363.25V115H373.49V70.2H361.33L347.25 97.08H345.97V70.2H335.73V115Z" fill="#333333"/>
</svg>
