<svg width="453" height="128" viewBox="0 0 453 128" fill="none" xmlns="http://www.w3.org/2000/svg">
<path d="M5.76 51H9.6V10.04H33.28V6.2H5.76V51ZM31.07 51H34.91L39.518 38.84H62.302L66.91 51H70.75L53.79 6.2H48.03L31.07 51ZM40.99 35L50.27 10.36H51.55L60.83 35H40.99ZM71.0625 51.32H72.9825C78.7425 51.32 82.0065 48.12 82.5825 41.72L85.2705 10.04H104.663V51H108.503V6.2H81.7505L78.7425 41.72C78.4225 45.56 76.1825 47.48 72.9825 47.48H71.0625V51.32ZM120.01 51H148.17V47.16H123.85V30.52H146.89V26.68H123.85V10.04H148.17V6.2H120.01V51ZM158.073 51H161.913V33.4H176.633C184.312 33.4 189.753 27.96 189.753 19.96C189.753 11.96 183.993 6.2 176.633 6.2H158.073V51ZM161.913 29.56V10.04H176.633C182.073 10.04 185.913 13.88 185.913 19.96C185.913 25.72 182.073 29.56 176.633 29.56H161.913ZM199.01 51H227.17V47.16H202.85V30.52H225.89V26.68H202.85V10.04H227.17V6.2H199.01V51ZM234.193 51H239.312L256.913 33.4H262.993V51H266.833V6.2H248.273C240.593 6.2 235.153 11.64 235.153 19.64C235.153 27.64 240.913 33.4 248.273 33.4H251.793L234.193 51ZM248.273 29.56C242.833 29.56 238.993 25.72 238.993 19.64C238.993 13.88 242.833 10.04 248.273 10.04H262.993V29.56H248.273Z" fill="#BDBDBD"/>
<path d="M22.08 116.28H32.32V109.24C45.12 109.24 52.48 101.88 52.48 91.96C52.48 82.04 45.12 74.68 32.32 74.68V68.92H22.08V74.68C9.28 74.68 1.92 82.04 1.92 91.96C1.92 101.88 9.28 109.24 22.08 109.24V116.28ZM22.08 100.28C15.68 100.28 12.16 96.76 12.16 91.96C12.16 87.16 15.68 83.64 22.08 83.64V100.28ZM32.32 100.28V83.64C38.72 83.64 42.24 87.16 42.24 91.96C42.24 96.76 38.72 100.28 32.32 100.28ZM78.695 115.64C90.855 115.64 100.455 106.04 100.455 92.6C100.455 79.16 90.855 69.56 78.695 69.56C66.535 69.56 56.935 79.16 56.935 92.6C56.935 106.04 66.535 115.64 78.695 115.64ZM78.695 105.72C72.295 105.72 67.175 100.6 67.175 92.6C67.175 84.6 72.295 79.48 78.695 79.48C85.095 79.48 90.215 84.6 90.215 92.6C90.215 100.6 85.095 105.72 78.695 105.72ZM115.51 115H125.75V80.12H138.23V70.2H103.03V80.12H115.51V115ZM162.57 115.64C174.73 115.64 184.33 106.04 184.33 92.6C184.33 79.16 174.73 69.56 162.57 69.56C150.41 69.56 140.81 79.16 140.81 92.6C140.81 106.04 150.41 115.64 162.57 115.64ZM162.57 105.72C156.17 105.72 151.05 100.6 151.05 92.6C151.05 84.6 156.17 79.48 162.57 79.48C168.97 79.48 174.09 84.6 174.09 92.6C174.09 100.6 168.97 105.72 162.57 105.72ZM191.355 115H201.595V80.12H221.115V70.2H191.355V115ZM226.855 115H237.095V101.56H247.655C256.295 101.56 262.375 95.48 262.375 85.88C262.375 76.28 256.295 70.2 247.655 70.2H226.855V115ZM237.095 91.64V80.12H247.015C249.895 80.12 252.135 82.36 252.135 85.88C252.135 89.4 249.895 91.64 247.015 91.64H237.095ZM260.492 115H271.693L274.573 106.04H291.853L294.733 115H305.933L290.573 70.2H275.853L260.492 115ZM277.453 97.08L282.573 81.08H283.853L288.973 97.08H277.453ZM326.455 116.28H336.695V109.24C349.495 109.24 356.855 101.88 356.855 91.96C356.855 82.04 349.495 74.68 336.695 74.68V68.92H326.455V74.68C313.655 74.68 306.295 82.04 306.295 91.96C306.295 101.88 313.655 109.24 326.455 109.24V116.28ZM326.455 100.28C320.055 100.28 316.535 96.76 316.535 91.96C316.535 87.16 320.055 83.64 326.455 83.64V100.28ZM336.695 100.28V83.64C343.095 83.64 346.615 87.16 346.615 91.96C346.615 96.76 343.095 100.28 336.695 100.28ZM363.23 115H375.39L389.47 88.12H390.75V115H400.99V70.2H388.83L374.75 97.08H373.47V70.2H363.23V115ZM409.98 115H422.14L436.22 88.12H437.5V115H447.74V70.2H435.58L421.5 97.08H420.22V70.2H409.98V115ZM428.86 65.4C435.26 65.4 439.1 61.56 439.42 56.12H432.38C432.06 58.04 430.78 59.32 428.86 59.32C426.94 59.32 425.66 58.04 425.34 56.12H418.3C418.62 61.56 422.46 65.4 428.86 65.4Z" fill="#333333"/>
</svg>
