<svg width="382" height="45" viewBox="0 0 382 45" fill="none" xmlns="http://www.w3.org/2000/svg">
<path d="M0.76 45H4.6V4.04H31.16V45H35V0.199997H0.76V45ZM41.07 45H44.91L49.518 32.84H72.302L76.91 45H80.75L63.79 0.199997H58.03L41.07 45ZM50.99 29L60.27 4.36H61.55L70.83 29H50.99ZM86.8225 45H90.6625V27.4H105.383C113.062 27.4 118.503 21.96 118.503 13.96C118.503 5.96 112.743 0.199997 105.383 0.199997H86.8225V45ZM90.6625 23.56V4.04H105.383C110.823 4.04 114.663 7.88 114.663 13.96C114.663 19.72 110.823 23.56 105.383 23.56H90.6625ZM127.76 45H131.6V23.24L153.04 45H158.16L135.76 22.28L156.88 0.199997H151.76L131.6 21.32V0.199997H127.76V45ZM163.948 45H170.988L193.068 4.36H194.347V45H198.188V0.199997H191.148L169.068 40.84H167.788V0.199997H163.948V45ZM209.698 45H213.538V24.2H240.097V45H243.938V0.199997H240.097V20.36H213.538V0.199997H209.698V45ZM255.448 45H259.288V4.04H282.968V0.199997H255.448V45ZM301.198 45H305.038V24.2H331.597V45H335.438V0.199997H331.597V20.36H305.038V0.199997H301.198V45ZM341.508 45H345.348L349.956 32.84H372.74L377.347 45H381.188L364.228 0.199997H358.468L341.508 45ZM351.428 29L360.708 4.36H361.988L371.268 29H351.428Z" fill="#BDBDBD"/>
</svg>
