<svg width="636" height="60" viewBox="0 0 636 60" fill="none" xmlns="http://www.w3.org/2000/svg">
<path d="M17.2 59.64C27.12 59.64 33.52 53.24 33.52 44.28C33.52 35.64 27.12 29.24 18.16 29.24C14.32 29.24 12.4 30.52 12.4 30.52H12.08L12.72 23.48H31.28V14.2H4.08L1.52 41.08H11.76C11.76 41.08 13.04 38.52 17.2 38.52C20.72 38.52 23.28 41.08 23.28 44.28C23.28 47.48 20.72 50.04 17.2 50.04C12.08 50.04 11.12 45.88 11.12 45.88H0.88C0.88 45.88 1.84 59.64 17.2 59.64ZM57.51 59.64C68.07 59.64 76.39 51.32 76.39 36.6C76.39 21.88 68.07 13.56 57.51 13.56C46.95 13.56 38.63 21.88 38.63 36.6C38.63 51.32 46.95 59.64 57.51 59.64ZM57.51 49.72C53.03 49.72 48.87 45.56 48.87 36.6C48.87 27.64 53.03 23.48 57.51 23.48C61.99 23.48 66.15 27.64 66.15 36.6C66.15 45.56 61.99 49.72 57.51 49.72ZM101.01 59.64C111.57 59.64 119.89 51.32 119.89 36.6C119.89 21.88 111.57 13.56 101.01 13.56C90.45 13.56 82.13 21.88 82.13 36.6C82.13 51.32 90.45 59.64 101.01 59.64ZM101.01 49.72C96.53 49.72 92.37 45.56 92.37 36.6C92.37 27.64 96.53 23.48 101.01 23.48C105.49 23.48 109.65 27.64 109.65 36.6C109.65 45.56 105.49 49.72 101.01 49.72ZM139.68 59H150.88L153.76 50.04H171.04L173.92 59H185.12L169.76 14.2H155.04L139.68 59ZM156.64 41.08L161.76 25.08H163.04L168.16 41.08H156.64ZM189.293 59H211.693C219.693 59 224.812 53.88 224.812 46.52C224.812 39.736 219.373 36.6 219.373 36.6V36.28C219.373 36.28 224.173 33.208 224.173 26.68C224.173 19.32 219.053 14.2 211.053 14.2H189.293V59ZM199.533 50.04V41.08H210.093C212.653 41.08 214.573 43 214.573 45.56C214.573 48.12 212.653 50.04 210.093 50.04H199.533ZM199.533 32.12V23.16H209.453C212.013 23.16 213.933 25.08 213.933 27.64C213.933 30.2 212.013 32.12 209.453 32.12H199.533ZM240.51 59H250.75V24.12H263.23V14.2H228.03V24.12H240.51V59ZM287.57 59.64C299.73 59.64 309.33 50.04 309.33 36.6C309.33 23.16 299.73 13.56 287.57 13.56C275.41 13.56 265.81 23.16 265.81 36.6C265.81 50.04 275.41 59.64 287.57 59.64ZM287.57 49.72C281.17 49.72 276.05 44.6 276.05 36.6C276.05 28.6 281.17 23.48 287.57 23.48C293.97 23.48 299.09 28.6 299.09 36.6C299.09 44.6 293.97 49.72 287.57 49.72ZM316.355 59H326.595V31.48H327.875L336.835 59H346.435L355.395 31.48H356.675V59H366.915V14.2H351.235L342.275 42.04H340.995L332.035 14.2H316.355V59ZM395.695 59.64C407.855 59.64 417.455 50.04 417.455 36.6C417.455 23.16 407.855 13.56 395.695 13.56C383.535 13.56 373.935 23.16 373.935 36.6C373.935 50.04 383.535 59.64 395.695 59.64ZM395.695 49.72C389.295 49.72 384.175 44.6 384.175 36.6C384.175 28.6 389.295 23.48 395.695 23.48C402.095 23.48 407.215 28.6 407.215 36.6C407.215 44.6 402.095 49.72 395.695 49.72ZM424.48 59H446.24C454.56 59 460.32 53.24 460.32 45.24C460.32 37.24 454.56 31.48 446.24 31.48H434.72V23.16H457.44V14.2H424.48V59ZM434.72 50.04V40.44H445.6C448.16 40.44 450.08 42.36 450.08 45.24C450.08 48.12 448.16 50.04 445.6 50.04H434.72ZM467.043 59H479.203L493.283 32.12H494.562V59H504.803V14.2H492.643L478.562 41.08H477.283V14.2H467.043V59ZM509.633 59.32H512.833C520.833 59.32 525.249 54.84 525.953 46.84L527.873 24.12H539.713V59H549.953V14.2H518.593L516.033 44.28C515.713 47.8 514.113 49.4 510.913 49.4H509.633V59.32ZM558.918 59H589.638V49.72H569.158V41.08H588.358V32.12H569.158V23.48H589.638V14.2H558.918V59ZM597.293 59H609.453L623.533 32.12H624.812V59H635.053V14.2H622.893L608.812 41.08H607.533V14.2H597.293V59ZM616.173 9.4C622.573 9.4 626.413 5.56 626.733 0.119999H619.693C619.373 2.04 618.093 3.32 616.173 3.32C614.253 3.32 612.973 2.04 612.653 0.119999H605.613C605.933 5.56 609.773 9.4 616.173 9.4Z" fill="#333333"/>
</svg>
